# xmcd CD database file
#
# Track frame offsets:
#	150
#	26497
#	43965
#	64757
#	84695
#	113332
#	136505
#	155727
#	180397
#	193852
#
# Disc length: 2781 seconds
#
# Revision: 10
# Processed by: cddbd v1.5.1PL0 Copyright (c) Steve Scherf et al.
# Submitted via: CDex 1.51
#
DISCID=7e0adb0a
DTITLE=THE HIGH-LOWS - flip flop [CD1]
DYEAR=2001
DGENRE=Alternative
TTITLE0=ママミルク [MONO Version]
TTITLE1=グッドバイ [LIVE Version]
TTITLE2=バナナボートに銀の月 [LIVE Version]
TTITLE3=スーパーソニックジェットボーイ
TTITLE4=日曜日よりの使者
TTITLE5=ベートーベンをぶっとばせ
TTITLE6=胸がドキドキ
TTITLE7=そばにいるから
TTITLE8=THE GOLDEN AGE OF ROCK`N`ROLL 〜ロックンロール黄金時代
TTITLE9=情熱の嵐
EXTD=YEAR: 2001
EXTT0=
EXTT1=
EXTT2=
EXTT3=
EXTT4=
EXTT5=
EXTT6=
EXTT7=
EXTT8=
EXTT9=
PLAYORDER=
